<svg data-name="Layer 1" xmlns="http://www.w3.org/2000/svg" xmlns:xlink="http://www.w3.org/1999/xlink" viewBox="0 0 102 63.44"><defs><clipPath id="a"/><clipPath id="f" transform="translate(-370 -223.37)"><path data-name="&lt;Clipping Path&gt;" d="M372.29 241.7c-1.45 4.1-2.29 10.72-2.29 18.17a46.77 46.77 0 0 0 1.14 11.45" fill="none" clip-path="url(#a)"/></clipPath><linearGradient id="g" x1="-76.78" y1="680.7" x2="-73.97" y2="680.7" gradientTransform="matrix(0 13.63 13.63 0 -9274.71 1060.09)" gradientUnits="userSpaceOnUse"><stop offset="0" stop-color="#164989"/><stop offset=".47" stop-color="#164886"/><stop offset=".76" stop-color="#16467e"/><stop offset="1" stop-color="#174370"/></linearGradient><clipPath id="h" transform="translate(-370 -223.37)"><path data-name="&lt;Clipping Path&gt;" d="M443.32 240.84a116.3 116.3 0 0 0-15.58 4.07 113.82 113.82 0 0 0-4.28 10.94 112.66 112.66 0 0 1 11.44-2.29c1.64-.24 3.33-.45 5-.62a114.36 114.36 0 0 1 3.88-12.19z" fill="none"/></clipPath><linearGradient id="i" x1="-8.33" y1="704.15" x2="-5.53" y2="704.15" gradientTransform="matrix(7.26 0 0 -7.26 113.97 5138.41)" gradientUnits="userSpaceOnUse"><stop offset="0" stop-color="#fde1a4"/><stop offset=".05" stop-color="#fde1a4"/><stop offset=".27" stop-color="#fcd787"/><stop offset=".55" stop-color="#fbce6b"/><stop offset=".79" stop-color="#fac85a"/><stop offset=".96" stop-color="#fac654"/><stop offset="1" stop-color="#fac654"/></linearGradient><clipPath id="j" transform="translate(-370 -223.37)"><path data-name="&lt;Clipping Path&gt;" d="M406.4 246c-2.24 3.24-4.33 6.6-6.21 10 3.15-2 6.4-3.93 9.69-5.64 1.66-3.37 3.5-6.71 5.49-9.93-3 1.73-6 3.6-9 5.56" fill="none"/></clipPath><linearGradient id="e" x1="2.84" y1="721.7" x2="5.65" y2="721.7" gradientTransform="matrix(5.41 0 0 -5.41 14.83 3927.61)" gradientUnits="userSpaceOnUse"><stop offset="0" stop-color="#fde1a4"/><stop offset=".05" stop-color="#fde1a4"/><stop offset=".19" stop-color="#fcd88a"/><stop offset=".35" stop-color="#fbd072"/><stop offset=".53" stop-color="#faca61"/><stop offset=".72" stop-color="#fac757"/><stop offset=".96" stop-color="#fac654"/><stop offset="1" stop-color="#fac654"/></linearGradient><clipPath id="k" transform="translate(-370 -223.37)"><path data-name="&lt;Clipping Path&gt;" d="M411.34 251.82c-1.52 3.14-2.9 6.35-4.11 9.58a106.19 106.19 0 0 1 14-4.95c1.14-3.58 2.49-7.16 4-10.66a118.29 118.29 0 0 0-13.86 6" fill="none"/></clipPath><linearGradient id="c" x1="-4.53" y1="710.45" x2="-1.72" y2="710.45" gradientTransform="matrix(6.41 0 0 -6.41 66.24 4581.3)" gradientUnits="userSpaceOnUse"><stop offset="0" stop-color="#8aa4c4"/><stop offset=".23" stop-color="#8aa4c4"/><stop offset=".52" stop-color="#86a1c2"/><stop offset=".79" stop-color="#7b98bc"/><stop offset="1" stop-color="#6d8cb5"/></linearGradient><clipPath id="l" transform="translate(-370 -223.37)"><path data-name="&lt;Clipping Path&gt;" d="M435.1 231.13a119.78 119.78 0 0 0-6.23 11.33 117.87 117.87 0 0 1 14.13-3.57l1.66-.29a120.19 120.19 0 0 1 5.73-12.18 127.24 127.24 0 0 0-15.3 4.71" fill="none"/></clipPath><linearGradient id="b" x1="-10.06" y1="702.57" x2="-7.26" y2="702.57" gradientTransform="matrix(7.67 0 0 -7.67 136.09 5402.41)" gradientUnits="userSpaceOnUse"><stop offset="0" stop-color="#164989"/><stop offset="1" stop-color="#1e446d"/></linearGradient><clipPath id="m" transform="translate(-370 -223.37)"><path data-name="&lt;Clipping Path&gt;" d="M388.83 266.88c-1.77 2.85-3.41 5.79-4.89 8.73 2.44-2 5-3.91 7.64-5.66 1-2.62 2.1-5.27 3.32-7.88-2.09 1.55-4.12 3.16-6.07 4.81" fill="none"/></clipPath><linearGradient id="n" x1="20.08" y1="744.69" x2="22.89" y2="744.69" gradientTransform="matrix(3.91 0 0 -3.91 -64.51 2954.82)" xlink:href="#b"/><clipPath id="o" transform="translate(-370 -223.37)"><path data-name="&lt;Clipping Path&gt;" d="M398.24 259.67c-1.41 2.78-2.71 5.62-3.86 8.46a100.2 100.2 0 0 1 10.34-5.6c1.09-3.07 2.34-6.15 3.72-9.17a118.59 118.59 0 0 0-10.21 6.31" fill="none"/></clipPath><linearGradient id="d" x1="6.18" y1="725.5" x2="8.98" y2="725.5" gradientTransform="matrix(5.01 0 0 -5.01 -6.59 3674.26)" gradientUnits="userSpaceOnUse"><stop offset="0" stop-color="#f7b219"/><stop offset=".34" stop-color="#f2ab1c"/><stop offset=".82" stop-color="#e49823"/><stop offset="1" stop-color="#dd8f27"/></linearGradient><clipPath id="p" transform="translate(-370 -223.37)"><path data-name="&lt;Clipping Path&gt;" d="M446.09 240.35a113.35 113.35 0 0 0-4.09 12.39 113.59 113.59 0 0 1 18.28-.1c1.38-4.85 2.84-9.44 4.46-13.76H464a112.05 112.05 0 0 0-17.88 1.48" fill="none"/></clipPath><linearGradient id="q" x1="-11.11" y1="699.01" x2="-8.3" y2="699.01" gradientTransform="matrix(8.11 0 0 -8.11 162.07 5690.27)" xlink:href="#c"/><clipPath id="r" transform="translate(-370 -223.37)"><path data-name="&lt;Clipping Path&gt;" d="M453 225.84a119.7 119.7 0 0 0-6 12.39 113.92 113.92 0 0 1 17-1.32h1.57a103 103 0 0 1 6.43-13.54 112.14 112.14 0 0 0-19 2.46" fill="none"/></clipPath><linearGradient id="s" x1="-14.24" y1="695.85" x2="-11.44" y2="695.85" gradientTransform="matrix(8.93 0 0 -8.93 204.14 6222.15)" xlink:href="#d"/><clipPath id="t" transform="translate(-370 -223.37)"><path data-name="&lt;Clipping Path&gt;" d="M435.14 255.51a110.89 110.89 0 0 0-12.39 2.56 102.6 102.6 0 0 0-2.77 11.1c2.27-.39 4.56-.71 6.81-.95 3.41-.36 6.94-.58 10.47-.64a100.21 100.21 0 0 1 2.19-12.58c-1.44.15-2.88.34-4.31.55" fill="none"/></clipPath><linearGradient id="u" x1="-6.77" y1="705.25" x2="-3.96" y2="705.25" gradientTransform="matrix(6.94 0 0 -6.94 96.95 4932.91)" xlink:href="#d"/><clipPath id="v" transform="translate(-370 -223.37)"><path data-name="&lt;Clipping Path&gt;" d="M381.85 280c-1 2.3-1.95 4.59-2.74 6.82a78.73 78.73 0 0 1 9.11-6.3c.61-2.42 1.36-4.9 2.21-7.4a95.68 95.68 0 0 0-8.58 6.88" fill="none"/></clipPath><linearGradient id="w" x1="17.12" y1="740.01" x2="19.93" y2="740.01" gradientTransform="matrix(4.03 0 0 -4.03 -59.97 3042.31)" xlink:href="#e"/><clipPath id="x" transform="translate(-370 -223.37)"><path data-name="&lt;Clipping Path&gt;" d="M406.3 264c-1.1 3.16-2 6.34-2.78 9.43a100.3 100.3 0 0 1 14.4-3.87 103.72 103.72 0 0 1 2.6-10.84A103.4 103.4 0 0 0 406.3 264" fill="none"/></clipPath><linearGradient id="y" x1="-2.36" y1="712.44" x2=".45" y2="712.44" gradientTransform="matrix(6.06 0 0 -6.06 47.8 4357.63)" xlink:href="#b"/></defs><title>ccontact-logo-small</title><g data-name="&lt;Group&gt;"><g clip-path="url(#f)" data-name="&lt;Clip Group&gt;"><path data-name="&lt;Path&gt;" fill="url(#g)" d="M0 52.17V13.94"/></g><g clip-path="url(#h)" data-name="&lt;Clip Group&gt;"><path data-name="&lt;Path&gt;" fill="url(#i)" d="M53.46 17.37h20.37v15.1H53.46z"/></g><g clip-path="url(#j)" data-name="&lt;Clip Group&gt;"><path data-name="&lt;Path&gt;" fill="url(#e)" d="M30.18 17.07h15.17v15.57H30.18z"/></g><g clip-path="url(#k)" data-name="&lt;Clip Group&gt;"><path data-name="&lt;Path&gt;" fill="url(#c)" d="M37.22 22.41H55.2v15.61H37.22z"/></g><g clip-path="url(#l)" data-name="&lt;Clip Group&gt;"><path data-name="&lt;Path&gt;" fill="url(#b)" d="M58.87 3.05H80.4v16.04H58.87z"/></g><g clip-path="url(#m)" data-name="&lt;Clip Group&gt;"><path data-name="&lt;Path&gt;" fill="url(#n)" d="M13.94 38.7H24.9v13.54H13.94z"/></g><g clip-path="url(#o)" data-name="&lt;Clip Group&gt;"><path data-name="&lt;Path&gt;" fill="url(#d)" d="M24.38 29.99h14.06v14.77H24.38z"/></g><g clip-path="url(#p)" data-name="&lt;Clip Group&gt;"><path data-name="&lt;Path&gt;" fill="url(#q)" d="M72.03 15.5h22.75v13.86H72.03z"/></g><g clip-path="url(#r)" data-name="&lt;Clip Group&gt;"><path data-name="&lt;Path&gt;" fill="url(#s)" d="M76.94 0H102v14.85H76.94z"/></g><g clip-path="url(#t)" data-name="&lt;Clip Group&gt;"><path data-name="&lt;Path&gt;" fill="url(#u)" d="M49.98 31.59h19.47v14.2H49.98z"/></g><g clip-path="url(#v)" data-name="&lt;Clip Group&gt;"><path data-name="&lt;Path&gt;" fill="url(#w)" d="M9.11 49.75h11.32v13.69H9.11z"/></g><g clip-path="url(#x)" data-name="&lt;Clip Group&gt;"><path data-name="&lt;Path&gt;" fill="url(#y)" d="M33.51 35.32H50.5v14.71H33.51z"/></g></g></svg>