<svg viewBox="0 0 250 250" xmlns="http://www.w3.org/2000/svg"><rect x="-461.73" y="-218.23" width="365.85" height="365.85" rx="0" ry="0" color="#000" transform="translate(315.51 149.12) scale(.68333)" fill="#95bbdf"/><g fill="#FFF"><path d="M124.995 131.976c31.624-.004 43.004-31.666 45.983-57.678 3.67-32.042-11.482-56.158-45.983-56.158-34.494 0-49.653 24.114-45.982 56.158 2.982 26.01 14.357 57.681 45.982 57.678z"/><path d="M210.542 207.375c-.345-10.093-1.528-20.232-3.29-30.168-2.134-12.037-4.85-29.683-15.358-37.525-6.078-4.536-13.948-6.024-20.905-8.759-3.387-1.33-6.42-2.652-9.267-4.156-9.61 10.538-22.14 16.05-36.732 16.051-14.588 0-27.116-5.512-36.726-16.05-2.847 1.504-5.88 2.825-9.266 4.155-6.958 2.735-14.828 4.223-20.905 8.759-10.51 7.844-13.225 25.49-15.358 37.525-1.762 9.936-2.945 20.075-3.29 30.168-.268 7.818 3.592 8.913 10.132 11.274 8.19 2.953 16.645 5.146 25.157 6.943 16.44 3.471 33.384 6.14 50.257 6.26 16.872-.12 33.818-2.789 50.257-6.26 8.511-1.797 16.967-3.99 25.156-6.943 6.543-2.36 10.403-3.456 10.135-11.274z"/></g></svg>