<svg xmlns="http://www.w3.org/2000/svg" xmlns:xlink="http://www.w3.org/1999/xlink"><defs><style>
    .sprite-symbol-usage {display: none;}
    .sprite-symbol-usage:target {display: inline;}
  </style><symbol viewBox="0 0 24 24" fill="none" stroke="currentColor" stroke-width="2" stroke-linecap="round" stroke-linejoin="round" class="feather feather-activity" id="activity"><polyline points="22 12 18 12 15 21 9 3 6 12 2 12" /></symbol><symbol viewBox="0 0 24 24" fill="none" stroke="currentColor" stroke-width="2" stroke-linecap="round" stroke-linejoin="round" class="feather feather-users" id="users"><path d="M17 21v-2a4 4 0 0 0-4-4H5a4 4 0 0 0-4 4v2" /><circle cx="9" cy="7" r="4" /><path d="M23 21v-2a4 4 0 0 0-3-3.87" /><path d="M16 3.13a4 4 0 0 1 0 7.75" /></symbol><symbol viewBox="0 0 24 24" fill="none" stroke="currentColor" stroke-width="2" stroke-linecap="round" stroke-linejoin="round" class="feather feather-user" id="user"><path d="M20 21v-2a4 4 0 0 0-4-4H8a4 4 0 0 0-4 4v2" /><circle cx="12" cy="7" r="4" /></symbol><symbol viewBox="0 0 24 24" fill="none" stroke="currentColor" stroke-width="2" stroke-linecap="round" stroke-linejoin="round" class="feather feather-percent" id="percent"><line x1="19" y1="5" x2="5" y2="19" /><circle cx="6.5" cy="6.5" r="2.5" /><circle cx="17.5" cy="17.5" r="2.5" /></symbol><symbol viewBox="0 0 24 24" fill="none" stroke="currentColor" stroke-width="2" stroke-linecap="round" stroke-linejoin="round" class="feather feather-bar-chart-2" id="bar-chart-2"><rect x="10" y="3" width="4" height="18" /><rect x="18" y="8" width="4" height="13" /><rect x="2" y="13" width="4" height="8" /></symbol><symbol viewBox="0 0 24 24" fill="none" stroke="currentColor" stroke-width="2" stroke-linecap="round" stroke-linejoin="round" class="feather feather-trending-down" id="trending-down"><polyline points="23 18 13.5 8.5 8.5 13.5 1 6" /><polyline points="17 18 23 18 23 12" /></symbol><symbol viewBox="0 0 24 24" fill="none" stroke="currentColor" stroke-width="2" stroke-linecap="round" stroke-linejoin="round" class="feather feather-trending-up" id="trending-up"><polyline points="23 6 13.5 15.5 8.5 10.5 1 18" /><polyline points="17 6 23 6 23 12" /></symbol><symbol viewBox="0 0 24 24" fill="none" stroke="currentColor" stroke-width="2" stroke-linecap="round" stroke-linejoin="round" class="feather feather-settings" id="settings"><circle cx="12" cy="12" r="3" /><path d="M19.4 15a1.65 1.65 0 0 0 .33 1.82l.06.06a2 2 0 0 1 0 2.83 2 2 0 0 1-2.83 0l-.06-.06a1.65 1.65 0 0 0-1.82-.33 1.65 1.65 0 0 0-1 1.51V21a2 2 0 0 1-2 2 2 2 0 0 1-2-2v-.09A1.65 1.65 0 0 0 9 19.4a1.65 1.65 0 0 0-1.82.33l-.06.06a2 2 0 0 1-2.83 0 2 2 0 0 1 0-2.83l.06-.06a1.65 1.65 0 0 0 .33-1.82 1.65 1.65 0 0 0-1.51-1H3a2 2 0 0 1-2-2 2 2 0 0 1 2-2h.09A1.65 1.65 0 0 0 4.6 9a1.65 1.65 0 0 0-.33-1.82l-.06-.06a2 2 0 0 1 0-2.83 2 2 0 0 1 2.83 0l.06.06a1.65 1.65 0 0 0 1.82.33H9a1.65 1.65 0 0 0 1-1.51V3a2 2 0 0 1 2-2 2 2 0 0 1 2 2v.09a1.65 1.65 0 0 0 1 1.51 1.65 1.65 0 0 0 1.82-.33l.06-.06a2 2 0 0 1 2.83 0 2 2 0 0 1 0 2.83l-.06.06a1.65 1.65 0 0 0-.33 1.82V9a1.65 1.65 0 0 0 1.51 1H21a2 2 0 0 1 2 2 2 2 0 0 1-2 2h-.09a1.65 1.65 0 0 0-1.51 1z" /></symbol><symbol viewBox="0 0 24 24" fill="none" stroke="currentColor" stroke-width="2" stroke-linecap="round" stroke-linejoin="round" class="feather feather-phone" id="phone"><path d="M22 16.92v3a2 2 0 0 1-2.18 2 19.79 19.79 0 0 1-8.63-3.07 19.5 19.5 0 0 1-6-6 19.79 19.79 0 0 1-3.07-8.67A2 2 0 0 1 4.11 2h3a2 2 0 0 1 2 1.72 12.84 12.84 0 0 0 .7 2.81 2 2 0 0 1-.45 2.11L8.09 9.91a16 16 0 0 0 6 6l1.27-1.27a2 2 0 0 1 2.11-.45 12.84 12.84 0 0 0 2.81.7A2 2 0 0 1 22 16.92z" /></symbol><symbol viewBox="0 0 24 24" fill="none" stroke="currentColor" stroke-width="2" stroke-linecap="round" stroke-linejoin="round" class="feather feather-circle" id="circle"><circle cx="12" cy="12" r="10" /></symbol><symbol viewBox="0 0 24 24" fill="none" stroke="currentColor" stroke-width="2" stroke-linecap="round" stroke-linejoin="round" class="feather feather-mail" id="mail"><path d="M4 4h16c1.1 0 2 .9 2 2v12c0 1.1-.9 2-2 2H4c-1.1 0-2-.9-2-2V6c0-1.1.9-2 2-2z" /><polyline points="22,6 12,13 2,6" /></symbol><symbol viewBox="0 0 24 24" fill="none" stroke="currentColor" stroke-width="2" stroke-linecap="round" stroke-linejoin="round" class="feather feather-menu" id="menu"><line x1="3" y1="12" x2="21" y2="12" /><line x1="3" y1="6" x2="21" y2="6" /><line x1="3" y1="18" x2="21" y2="18" /></symbol><symbol viewBox="0 0 24 24" fill="none" stroke="currentColor" stroke-width="2" stroke-linecap="round" stroke-linejoin="round" class="feather feather-log-in" id="log-in"><path d="M14 22h5a2 2 0 0 0 2-2V4a2 2 0 0 0-2-2h-5" /><polyline points="11 16 15 12 11 8" /><line x1="15" y1="12" x2="3" y2="12" /></symbol><symbol viewBox="0 0 24 24" fill="none" stroke="currentColor" stroke-width="2" stroke-linecap="round" stroke-linejoin="round" class="feather feather-log-out" id="log-out"><path d="M10 22H5a2 2 0 0 1-2-2V4a2 2 0 0 1 2-2h5" /><polyline points="17 16 21 12 17 8" /><line x1="21" y1="12" x2="9" y2="12" /></symbol><symbol viewBox="0 0 24 24" fill="none" stroke="currentColor" stroke-width="2" stroke-linecap="round" stroke-linejoin="round" class="feather feather-shopping-cart" id="shopping-cart"><circle cx="8" cy="21" r="2" /><circle cx="20" cy="21" r="2" /><path d="M5.67 6H23l-1.68 8.39a2 2 0 0 1-2 1.61H8.75a2 2 0 0 1-2-1.74L5.23 2.74A2 2 0 0 0 3.25 1H1" /></symbol><symbol viewBox="0 0 24 24" fill="none" stroke="currentColor" stroke-width="2" stroke-linecap="round" stroke-linejoin="round" class="feather feather-lock" id="lock"><rect x="3" y="11" width="18" height="11" rx="2" ry="2" /><path d="M7 11V7a5 5 0 0 1 10 0v4" /></symbol><symbol viewBox="0 0 24 24" fill="none" stroke="currentColor" stroke-width="2" stroke-linecap="round" stroke-linejoin="round" class="feather feather-chevrons-left" id="chevrons-left"><polyline points="11 17 6 12 11 7" /><polyline points="18 17 13 12 18 7" /></symbol><symbol viewBox="0 0 24 24" fill="none" stroke="currentColor" stroke-width="2" stroke-linecap="round" stroke-linejoin="round" class="feather feather-chevrons-right" id="chevrons-right"><polyline points="13 17 18 12 13 7" /><polyline points="6 17 11 12 6 7" /></symbol><symbol viewBox="0 0 24 24" fill="none" stroke="currentColor" stroke-width="2" stroke-linecap="round" stroke-linejoin="round" class="feather feather-chevron-left" id="chevron-left"><polyline points="15 18 9 12 15 6" /></symbol><symbol viewBox="0 0 24 24" fill="none" stroke="currentColor" stroke-width="2" stroke-linecap="round" stroke-linejoin="round" class="feather feather-chevron-right" id="chevron-right"><polyline points="9 18 15 12 9 6" /></symbol><symbol viewBox="0 0 24 24" fill="none" stroke="currentColor" stroke-width="2" stroke-linecap="round" stroke-linejoin="round" class="feather feather-chevron-up" id="chevron-up"><polyline points="18 15 12 9 6 15" /></symbol><symbol viewBox="0 0 24 24" fill="none" stroke="currentColor" stroke-width="2" stroke-linecap="round" stroke-linejoin="round" class="feather feather-chevron-down" id="chevron-down"><polyline points="6 9 12 15 18 9" /></symbol><symbol viewBox="0 0 24 24" fill="none" stroke="currentColor" stroke-width="2" stroke-linecap="round" stroke-linejoin="round" class="feather feather-user-plus" id="user-plus"><path d="M16 21v-2a4 4 0 0 0-4-4H5a4 4 0 0 0-4 4v2" /><circle cx="8.5" cy="7" r="4" /><line x1="20" y1="8" x2="20" y2="14" /><line x1="23" y1="11" x2="17" y2="11" /></symbol><symbol viewBox="0 0 24 24" fill="none" stroke="currentColor" stroke-width="2" stroke-linecap="round" stroke-linejoin="round" class="feather feather-plus-square" id="plus-square"><rect x="3" y="3" width="18" height="18" rx="2" ry="2" /><line x1="12" y1="8" x2="12" y2="16" /><line x1="8" y1="12" x2="16" y2="12" /></symbol><symbol viewBox="0 0 24 24" fill="none" stroke="currentColor" stroke-width="2" stroke-linecap="round" stroke-linejoin="round" class="feather feather-minus-square" id="minus-square"><rect x="3" y="3" width="18" height="18" rx="2" ry="2" /><line x1="8" y1="12" x2="16" y2="12" /></symbol><symbol viewBox="0 0 24 24" fill="none" stroke="currentColor" stroke-width="2" stroke-linecap="round" stroke-linejoin="round" class="feather feather-edit-3" id="edit-3"><polygon points="14 2 18 6 7 17 3 17 3 13 14 2" /><line x1="3" y1="22" x2="21" y2="22" /></symbol><symbol viewBox="0 0 24 24" fill="none" stroke="currentColor" stroke-width="2" stroke-linecap="round" stroke-linejoin="round" class="feather feather-trash-2" id="trash-2"><polyline points="3 6 5 6 21 6" /><path d="M19 6v14a2 2 0 0 1-2 2H7a2 2 0 0 1-2-2V6m3 0V4a2 2 0 0 1 2-2h4a2 2 0 0 1 2 2v2" /><line x1="10" y1="11" x2="10" y2="17" /><line x1="14" y1="11" x2="14" y2="17" /></symbol><symbol viewBox="0 0 24 24" fill="none" stroke="currentColor" stroke-width="2" stroke-linecap="round" stroke-linejoin="round" class="feather feather-share" id="share"><path d="M4 12v8a2 2 0 0 0 2 2h12a2 2 0 0 0 2-2v-8" /><polyline points="16 6 12 2 8 6" /><line x1="12" y1="2" x2="12" y2="15" /></symbol><symbol viewBox="0 0 24 24" fill="none" stroke="currentColor" stroke-width="2" stroke-linecap="round" stroke-linejoin="round" class="feather feather-eye" id="eye"><path d="M1 12s4-8 11-8 11 8 11 8-4 8-11 8-11-8-11-8z" /><circle cx="12" cy="12" r="3" /></symbol><symbol viewBox="0 0 24 24" fill="none" stroke="currentColor" stroke-width="2" stroke-linecap="round" stroke-linejoin="round" class="feather feather-calendar" id="calendar"><rect x="3" y="4" width="18" height="18" rx="2" ry="2" /><line x1="16" y1="2" x2="16" y2="6" /><line x1="8" y1="2" x2="8" y2="6" /><line x1="3" y1="10" x2="21" y2="10" /></symbol><symbol viewBox="0 0 24 24" fill="none" stroke="currentColor" stroke-width="2" stroke-linecap="round" stroke-linejoin="round" class="feather feather-minus" id="minus"><line x1="5" y1="12" x2="19" y2="12" /></symbol><symbol viewBox="0 0 24 24" fill="none" stroke="currentColor" stroke-width="2" stroke-linecap="round" stroke-linejoin="round" class="feather feather-check-circle" id="check-circle"><path d="M22 11.07V12a10 10 0 1 1-5.93-9.14" /><polyline points="23 3 12 14 9 11" /></symbol><symbol viewBox="0 0 24 24" fill="none" stroke="currentColor" stroke-width="2" stroke-linecap="round" stroke-linejoin="round" class="feather feather-x" id="x"><line x1="18" y1="6" x2="6" y2="18" /><line x1="6" y1="6" x2="18" y2="18" /></symbol><symbol viewBox="0 0 24 24" fill="none" stroke="currentColor" stroke-width="2" stroke-linecap="round" stroke-linejoin="round" class="feather feather-download" id="download"><path d="M3 17v3a2 2 0 0 0 2 2h14a2 2 0 0 0 2-2v-3" /><polyline points="8 12 12 16 16 12" /><line x1="12" y1="2" x2="12" y2="16" /></symbol></defs><use id="activity-usage" xlink:href="#activity" class="sprite-symbol-usage" /><use id="users-usage" xlink:href="#users" class="sprite-symbol-usage" /><use id="user-usage" xlink:href="#user" class="sprite-symbol-usage" /><use id="percent-usage" xlink:href="#percent" class="sprite-symbol-usage" /><use id="bar-chart-2-usage" xlink:href="#bar-chart-2" class="sprite-symbol-usage" /><use id="trending-down-usage" xlink:href="#trending-down" class="sprite-symbol-usage" /><use id="trending-up-usage" xlink:href="#trending-up" class="sprite-symbol-usage" /><use id="settings-usage" xlink:href="#settings" class="sprite-symbol-usage" /><use id="phone-usage" xlink:href="#phone" class="sprite-symbol-usage" /><use id="circle-usage" xlink:href="#circle" class="sprite-symbol-usage" /><use id="mail-usage" xlink:href="#mail" class="sprite-symbol-usage" /><use id="menu-usage" xlink:href="#menu" class="sprite-symbol-usage" /><use id="log-in-usage" xlink:href="#log-in" class="sprite-symbol-usage" /><use id="log-out-usage" xlink:href="#log-out" class="sprite-symbol-usage" /><use id="shopping-cart-usage" xlink:href="#shopping-cart" class="sprite-symbol-usage" /><use id="lock-usage" xlink:href="#lock" class="sprite-symbol-usage" /><use id="chevrons-left-usage" xlink:href="#chevrons-left" class="sprite-symbol-usage" /><use id="chevrons-right-usage" xlink:href="#chevrons-right" class="sprite-symbol-usage" /><use id="chevron-left-usage" xlink:href="#chevron-left" class="sprite-symbol-usage" /><use id="chevron-right-usage" xlink:href="#chevron-right" class="sprite-symbol-usage" /><use id="chevron-up-usage" xlink:href="#chevron-up" class="sprite-symbol-usage" /><use id="chevron-down-usage" xlink:href="#chevron-down" class="sprite-symbol-usage" /><use id="user-plus-usage" xlink:href="#user-plus" class="sprite-symbol-usage" /><use id="plus-square-usage" xlink:href="#plus-square" class="sprite-symbol-usage" /><use id="minus-square-usage" xlink:href="#minus-square" class="sprite-symbol-usage" /><use id="edit-3-usage" xlink:href="#edit-3" class="sprite-symbol-usage" /><use id="trash-2-usage" xlink:href="#trash-2" class="sprite-symbol-usage" /><use id="share-usage" xlink:href="#share" class="sprite-symbol-usage" /><use id="eye-usage" xlink:href="#eye" class="sprite-symbol-usage" /><use id="calendar-usage" xlink:href="#calendar" class="sprite-symbol-usage" /><use id="minus-usage" xlink:href="#minus" class="sprite-symbol-usage" /><use id="check-circle-usage" xlink:href="#check-circle" class="sprite-symbol-usage" /><use id="x-usage" xlink:href="#x" class="sprite-symbol-usage" /><use id="download-usage" xlink:href="#download" class="sprite-symbol-usage" /></svg>